<svg height="512pt" viewBox="0 0 512 512" width="512pt" xmlns="http://www.w3.org/2000/svg"><path d="m111.398438 512c-1.933594 0-3.882813-.375-5.738282-1.140625-5.605468-2.324219-9.261718-7.792969-9.261718-13.859375v-81.398438h-81.398438c-8.285156 0-15-6.714843-15-15v-385.601562c0-8.285156 6.714844-15 15-15h482c8.285156 0 15 6.714844 15 15v385.601562c0 8.285157-6.714844 15-15 15h-282.988281l-92.003907 92.003907c-2.871093 2.871093-6.707031 4.394531-10.609374 4.394531zm-81.398438-126.398438h81.398438c8.285156 0 15 6.714844 15 15v60.183594l70.792968-70.789062c2.816406-2.8125 6.628906-4.394532 10.609375-4.394532h274.199219v-355.601562h-452zm0 0" fill="#91e1ff"/><g fill="#09426d"><path d="m159.601562 222.800781c-.492187 0-.980468-.03125-1.472656-.070312-.488281-.050781-.980468-.128907-1.457031-.21875-.480469-.101563-.960937-.222657-1.421875-.363281-.46875-.148438-.941406-.308594-1.390625-.5-.449219-.1875-.890625-.398438-1.320313-.628907-.4375-.230469-.859374-.480469-1.269531-.75-.398437-.269531-.800781-.558593-1.179687-.871093-.378906-.308594-.75-.648438-1.101563-.988282-.339843-.351562-.679687-.71875-.988281-1.101562-.308594-.378906-.601562-.777344-.871094-1.179688-.269531-.410156-.519531-.828125-.75-1.269531-.230468-.429687-.4375-.871094-.628906-1.320313-.191406-.449218-.351562-.917968-.5-1.378906-.140625-.46875-.261719-.949218-.359375-1.429687-.089844-.480469-.171875-.96875-.210937-1.449219-.050782-.492188-.078126-.992188-.078126-1.480469 0-.492187.027344-.992187.078126-1.480469.039062-.480468.121093-.96875.210937-1.449218.097656-.480469.21875-.960938.359375-1.429688.148438-.460937.308594-.929687.5-1.382812.191406-.449219.398438-.886719.628906-1.320313.230469-.4375.480469-.859375.75-1.269531.269532-.398438.5625-.796875.871094-1.179688.308594-.378906.648438-.75.988281-1.097656.351563-.339844.722657-.679687 1.101563-.992187.378906-.308594.78125-.597657 1.179687-.871094.410157-.269531.832031-.519531 1.269531-.75.429688-.226563.871094-.4375 1.320313-.628906.449219-.1875.921875-.347657 1.390625-.5.460938-.140625.941406-.257813 1.421875-.359375.476563-.089844.96875-.167969 1.457031-.21875.972656-.101563 1.972656-.101563 2.949219 0 .480469.050781.972656.128906 1.453125.21875.480469.101562.957031.21875 1.429688.359375.460937.152343.929687.3125 1.378906.5.449218.191406.890625.402343 1.320312.628906.441406.230469.859375.480469 1.269532.75.398437.273437.800781.5625 1.179687.871094.378906.3125.75.652343 1.101563.992187.339843.347656.679687.71875.988281 1.097656.3125.382813.601562.78125.871093 1.179688.269532.410156.519532.832031.75 1.269531.230469.433594.441407.871094.628907 1.320313.191406.453125.351562.921875.5 1.382812.140625.46875.261719.949219.359375 1.429688.089844.480468.171875.96875.222656 1.449218.039062.488282.070312.988282.070312 1.480469 0 .488281-.03125.988281-.070312 1.480469-.050781.480469-.132812.96875-.222656 1.449219-.097656.480469-.21875.960937-.359375 1.429687-.148438.460938-.308594.929688-.5 1.378906-.1875.449219-.398438.890626-.628907 1.320313-.230468.441406-.480468.859375-.75 1.269531-.269531.402344-.558593.800782-.871093 1.179688-.308594.382812-.648438.75-.988281 1.101562-.351563.339844-.722657.679688-1.101563.988282-.378906.3125-.78125.601562-1.179687.871093-.410157.269531-.828126.519531-1.269532.75-.429687.230469-.871094.441407-1.320312.628907-.449219.191406-.917969.351562-1.378906.5-.472657.140624-.949219.261718-1.429688.363281-.480469.089843-.972656.167969-1.453125.21875-.488281.039062-.988281.070312-1.476563.070312zm0 0"/><path d="m256 222.800781c-.488281 0-.988281-.019531-1.480469-.070312-.480469-.050781-.96875-.128907-1.449219-.21875-.480468-.101563-.960937-.222657-1.429687-.363281-.460937-.148438-.929687-.308594-1.378906-.5-.453125-.1875-.902344-.398438-1.332031-.628907-.429688-.230469-.851563-.480469-1.257813-.75-.410156-.269531-.800781-.558593-1.183594-.871093-.378906-.308594-.75-.648438-1.097656-.988282-.339844-.351562-.679687-.71875-.992187-1.101562-.308594-.378906-.597657-.777344-.867188-1.179688-.269531-.410156-.519531-.828125-.75-1.269531-.230469-.429687-.441406-.871094-.632812-1.320313-.1875-.449218-.347657-.917968-.5-1.378906-.136719-.46875-.257813-.949218-.359376-1.429687-.089843-.480469-.167968-.96875-.21875-1.460938-.050781-.480469-.070312-.980469-.070312-1.46875 0-.492187.019531-.992187.070312-1.480469.050782-.480468.128907-.96875.21875-1.449218.101563-.480469.222657-.960938.359376-1.429688.152343-.460937.3125-.929687.5-1.382812.191406-.449219.402343-.886719.632812-1.328125.230469-.429688.480469-.851563.75-1.261719s.558594-.796875.867188-1.179688c.3125-.378906.652343-.75.992187-1.097656.347656-.339844.71875-.679687 1.097656-.992187.382813-.308594.773438-.597657 1.183594-.871094.40625-.269531.828125-.519531 1.257813-.75.429687-.226563.878906-.4375 1.332031-.628906.449219-.1875.917969-.347657 1.378906-.5.46875-.140625.949219-.257813 1.429687-.359375.480469-.089844.96875-.167969 1.449219-.21875.980469-.089844 1.980469-.089844 2.949219 0 .492188.050781.980469.128906 1.460938.21875.480468.101562.960937.21875 1.421874.359375.46875.152343.9375.3125 1.390626.5.449218.191406.890624.402343 1.316406.628906.441406.230469.863281.480469 1.273437.75.398438.273437.800781.5625 1.179688.871094.378906.3125.75.652343 1.089843.992187.351563.347656.679688.71875 1 1.097656.300782.382813.601563.769532.871094 1.179688.269532.410156.519532.832031.75 1.261719.226563.441406.4375.878906.628906 1.328125.1875.453125.351563.921875.5 1.382812.140626.46875.257813.949219.359376 1.429688.089843.480468.171874.96875.21875 1.449218.050781.488282.070312.988282.070312 1.480469 0 .488281-.019531.988281-.070312 1.46875-.046876.492188-.128907.980469-.21875 1.460938-.101563.480469-.21875.960937-.359376 1.429687-.148437.460938-.3125.929688-.5 1.378906-.191406.449219-.398437.890626-.628906 1.320313-.230468.441406-.480468.859375-.75 1.269531-.273437.402344-.570312.800782-.871094 1.179688-.320312.382812-.648437.75-1 1.101562-.339843.339844-.710937.679688-1.089843.988282-.378907.3125-.78125.601562-1.179688.871093-.410156.269531-.832031.519531-1.273437.75-.429688.230469-.867188.441407-1.316406.628907-.453126.191406-.921876.351562-1.390626.5-.460937.140624-.941406.261718-1.421874.363281-.480469.089843-.96875.167969-1.460938.21875-.480469.050781-.980469.070312-1.46875.070312zm0 0"/><path d="m352.398438 222.800781c-.488282 0-.988282-.03125-1.46875-.070312-.488282-.050781-.980469-.128907-1.460938-.21875-.476562-.101563-.957031-.222657-1.429688-.363281-.460937-.148438-.929687-.308594-1.378906-.5-.449218-.1875-.890625-.398438-1.320312-.628907-.441406-.230469-.859375-.480469-1.269532-.75-.398437-.269531-.800781-.558593-1.179687-.871093-.382813-.308594-.75-.648438-1.101563-.988282-.339843-.351562-.679687-.71875-.988281-1.101562-.3125-.378906-.601562-.777344-.871093-1.179688-.269532-.410156-.519532-.828125-.75-1.269531-.230469-.429687-.441407-.871094-.628907-1.320313-.191406-.449218-.351562-.917968-.5-1.378906-.140625-.46875-.261719-.949218-.363281-1.429687-.089844-.480469-.167969-.96875-.21875-1.449219-.039062-.492188-.070312-.992188-.070312-1.480469 0-.492187.03125-.992187.070312-1.472656.050781-.488281.128906-.976563.21875-1.457031.101562-.480469.222656-.960938.363281-1.421875.148438-.46875.308594-.9375.5-1.390625.1875-.449219.398438-.886719.628907-1.320313.230468-.4375.480468-.859375.75-1.269531.269531-.398438.558593-.796875.871093-1.179688.308594-.378906.648438-.75.988281-1.097656.351563-.339844.71875-.679687 1.101563-.992187.378906-.308594.777344-.597657 1.179687-.871094.410157-.269531.828126-.519531 1.269532-.75.429687-.226563.871094-.4375 1.320312-.628906.449219-.1875.917969-.347657 1.378906-.5.472657-.140625.949219-.257813 1.429688-.359375.480469-.089844.972656-.167969 1.460938-.21875.96875-.089844 1.96875-.089844 2.949218 0 .480469.050781.972656.128906 1.449219.21875.480469.101562.960937.21875 1.433594.359375.457031.152343.929687.3125 1.378906.5.449219.191406.890625.402343 1.320313.628906.4375.230469.859374.480469 1.269531.75.398437.273437.800781.5625 1.179687.871094.378906.3125.75.652343 1.101563.992187.339843.347656.679687.71875.988281 1.097656.3125.382813.601562.78125.871094 1.179688.269531.410156.519531.832031.75 1.269531.230468.433594.4375.871094.628906 1.320313.191406.453125.351562.921875.5 1.390625.140625.460937.261719.941406.359375 1.421875.089844.480468.171875.96875.210937 1.457031.050782.480469.078126.980469.078126 1.472656 0 .488281-.027344.988281-.078126 1.480469-.039062.480469-.121093.96875-.210937 1.449219-.097656.480469-.21875.960937-.359375 1.429687-.148438.460938-.308594.929688-.5 1.378906-.1875.449219-.398438.890626-.628906 1.320313-.230469.441406-.480469.859375-.75 1.269531-.269532.402344-.5625.800782-.871094 1.179688-.308594.382812-.648438.75-.988281 1.101562-.351563.339844-.722657.679688-1.101563.988282-.378906.3125-.777344.601562-1.179687.871093-.410157.269531-.832031.519531-1.269531.75-.429688.230469-.871094.441407-1.320313.628907-.449219.191406-.921875.351562-1.378906.5-.472657.140624-.953125.261718-1.433594.363281-.476563.089843-.96875.167969-1.449219.21875-.488281.039062-.988281.070312-1.480468.070312zm0 0"/></g></svg>