<?xml version="1.0" standalone="no"?>
<!DOCTYPE svg PUBLIC "-//W3C//DTD SVG 20010904//EN"
 "http://www.w3.org/TR/2001/REC-SVG-20010904/DTD/svg10.dtd">
<svg version="1.0" xmlns="http://www.w3.org/2000/svg"
 width="840.000000pt" height="578.000000pt" viewBox="0 0 840.000000 578.000000"
 preserveAspectRatio="xMidYMid meet">
<metadata>
Created by potrace 1.16, written by Peter Selinger 2001-2019
</metadata>
<g transform="translate(0.000000,578.000000) scale(0.100000,-0.100000)"
fill="#000000" stroke="none">
<path d="M1720 5364 c-14 -2 -64 -11 -111 -19 -266 -47 -391 -117 -458 -259
-39 -80 -77 -198 -98 -303 l-18 -84 -130 -96 c-180 -133 -328 -284 -382 -388
-72 -140 -141 -339 -172 -495 -16 -78 -96 -955 -121 -1315 -32 -460 -31 -1142
1 -1410 27 -226 118 -384 304 -532 96 -77 231 -146 340 -174 93 -24 289 -30
369 -10 111 27 244 110 361 226 142 139 213 252 416 653 108 214 151 291 193
338 29 34 58 69 64 79 9 17 18 12 93 -48 160 -128 287 -175 494 -184 142 -6
248 10 392 62 246 88 363 194 487 443 l46 92 413 -1 412 0 53 -108 c103 -207
184 -289 379 -383 249 -120 531 -140 767 -55 67 25 138 69 234 147 35 28 65
50 67 48 1 -2 23 -29 49 -61 26 -32 56 -67 66 -77 10 -10 77 -137 149 -282
203 -412 307 -571 461 -703 185 -159 340 -217 534 -200 223 19 397 100 567
262 130 124 194 245 224 421 32 190 44 735 25 1147 -18 393 -105 1417 -136
1600 -28 167 -107 402 -176 525 -73 130 -193 249 -411 406 l-96 69 -16 75
c-40 176 -104 342 -159 407 -88 105 -333 180 -621 190 -312 11 -444 -52 -604
-288 -69 -103 -91 -166 -122 -354 l-22 -130 -1625 0 -1626 1 -17 104 c-35 219
-59 287 -144 405 -103 145 -157 189 -281 231 -71 24 -96 28 -234 30 -85 1
-166 0 -180 -2z m5167 -880 c100 -48 157 -143 157 -259 0 -118 -54 -208 -159
-263 -69 -37 -188 -38 -255 -3 -132 68 -195 208 -156 343 52 180 244 265 413
182z m-5007 -307 l0 -173 -37 -45 c-112 -135 -176 -186 -220 -174 -30 7 -127
97 -183 170 l-40 52 0 171 0 172 240 0 240 0 0 -173z m4299 -316 c135 -69 194
-239 132 -379 -31 -69 -106 -137 -174 -157 -116 -34 -214 -10 -297 73 -95 96
-115 216 -55 338 69 140 250 198 394 125z m1377 18 c23 -6 63 -27 89 -47 97
-74 136 -196 101 -317 -25 -83 -108 -166 -191 -191 -224 -64 -433 135 -370
353 32 111 117 190 228 213 44 8 75 6 143 -11z m-6199 -57 c73 -61 153 -149
154 -171 4 -49 -25 -88 -135 -182 l-81 -69 -177 0 -178 0 0 235 0 235 179 0
180 0 58 -48z m983 -187 l0 -235 -178 0 -178 0 -83 73 c-46 39 -97 91 -114
114 -28 39 -29 44 -17 73 7 17 56 71 108 120 l96 90 183 0 183 0 0 -235z
m2866 -37 c2 -3 -92 -35 -208 -72 -116 -37 -217 -70 -225 -73 -10 -4 -13 25
-13 145 l0 150 221 -73 c121 -40 222 -75 225 -77z m-1596 2 l0 -140 -230 0
-230 0 0 140 0 140 230 0 230 0 0 -140z m-1932 -120 c38 -23 108 -93 164 -164
l38 -48 -2 -172 -3 -171 -235 0 -235 0 -3 171 -2 172 38 48 c73 93 174 184
202 184 3 0 20 -9 38 -20z m5197 -234 c61 -29 117 -84 147 -145 18 -36 23 -62
22 -121 -1 -89 -19 -134 -76 -197 -66 -71 -107 -88 -213 -88 -109 0 -149 18
-219 96 -102 113 -99 271 6 385 65 71 115 92 218 93 49 1 78 -5 115 -23z
m-3846 -501 c194 -46 358 -206 416 -408 26 -91 22 -227 -10 -322 -113 -338
-480 -490 -805 -333 -87 42 -203 158 -247 249 -106 216 -74 464 83 638 144
159 355 225 563 176z m2585 -1 c156 -40 301 -156 370 -295 115 -233 74 -483
-109 -664 -112 -112 -241 -165 -400 -165 -459 0 -728 512 -469 893 107 156
273 244 468 246 43 1 106 -6 140 -15z"/>
</g>
</svg>
