<?xml version="1.0" standalone="no"?>
<!DOCTYPE svg PUBLIC "-//W3C//DTD SVG 20010904//EN"
 "http://www.w3.org/TR/2001/REC-SVG-20010904/DTD/svg10.dtd">
<svg version="1.0" xmlns="http://www.w3.org/2000/svg"
 width="840.000000pt" height="718.000000pt" viewBox="0 0 840.000000 718.000000"
 preserveAspectRatio="xMidYMid meet">
<metadata>
Created by potrace 1.16, written by Peter Selinger 2001-2019
</metadata>
<g transform="translate(0.000000,718.000000) scale(0.100000,-0.100000)"
fill="#000000" stroke="none">
<path d="M2180 6765 c-605 -115 -1102 -754 -1491 -1918 -431 -1291 -598 -2737
-414 -3592 91 -423 264 -702 510 -820 195 -95 379 -86 610 30 231 115 462 331
714 665 195 260 483 779 680 1230 35 80 76 170 92 201 l28 56 83 26 c210 66
618 152 881 187 115 15 491 12 668 -5 260 -25 871 -150 916 -187 21 -17 50
-77 139 -288 94 -223 279 -596 404 -815 347 -605 730 -1018 1071 -1154 323
-128 608 -51 809 220 233 313 334 811 317 1564 -15 635 -87 1152 -262 1863
-309 1254 -731 2097 -1235 2472 -146 108 -322 183 -493 210 -119 20 -329 8
-447 -25 -124 -34 -259 -99 -377 -181 -113 -79 -150 -94 -340 -140 -480 -115
-871 -134 -1287 -63 -147 24 -514 114 -575 141 -25 10 -74 43 -111 72 -160
130 -305 201 -495 242 -100 22 -303 27 -395 9z m64 -919 c20 -15 43 -38 52
-51 18 -28 33 -168 34 -317 l0 -108 113 0 c141 0 267 -14 306 -35 53 -27 85
-80 89 -149 5 -77 -20 -120 -93 -156 -46 -22 -63 -25 -232 -28 l-183 -4 0 -97
c-1 -149 -16 -294 -34 -328 -25 -49 -71 -76 -135 -81 -67 -4 -111 16 -154 70
-35 43 -46 117 -46 316 l-1 122 -107 0 c-165 1 -288 15 -326 39 -92 57 -100
210 -13 276 43 33 95 42 282 50 l161 7 6 172 c7 183 15 228 48 270 55 70 164
85 233 32z m4022 -80 c217 -101 196 -443 -33 -512 -105 -32 -201 -7 -279 71
-85 85 -106 197 -56 307 61 135 232 197 368 134z m-2639 -406 c140 -9 170 -19
215 -67 61 -66 55 -161 -16 -240 l-42 -46 -225 -1 c-209 -1 -227 0 -264 20
-95 50 -131 170 -73 247 57 74 76 81 258 95 8 1 74 -3 147 -8z m1209 -23 c120
-62 126 -241 11 -305 -28 -15 -63 -17 -262 -17 -222 0 -231 1 -267 23 -42 26
-78 91 -78 140 0 64 39 131 94 159 63 33 439 33 502 0z m904 -72 c54 -19 116
-65 145 -107 75 -111 58 -268 -37 -354 -56 -50 -101 -67 -183 -68 -112 -1
-201 49 -247 139 -30 57 -36 171 -13 232 51 134 202 205 335 158z m1056 -16
c48 -23 84 -60 117 -123 29 -56 31 -183 3 -240 -49 -98 -138 -150 -256 -151
-64 0 -82 4 -121 27 -54 32 -106 87 -125 134 -22 51 -18 179 6 229 29 59 90
115 152 137 66 23 161 18 224 -13z m-570 -484 c118 -37 182 -121 191 -253 6
-90 -3 -117 -70 -190 -132 -143 -343 -116 -445 57 -22 38 -26 57 -26 116 1
135 66 226 193 271 48 18 97 17 157 -1z m-2701 -300 c124 -22 214 -71 315
-174 96 -97 148 -186 176 -306 22 -95 15 -246 -15 -335 -71 -206 -262 -382
-471 -431 -71 -16 -210 -16 -280 0 -223 54 -411 228 -474 441 -23 78 -31 221
-17 307 38 223 250 454 461 499 75 17 209 16 305 -1z m1904 -45 c195 -25 405
-201 492 -410 21 -50 23 -71 23 -220 0 -156 -1 -168 -26 -227 -76 -180 -225
-321 -408 -384 -94 -33 -284 -34 -385 -2 -198 63 -365 231 -424 428 -49 160
-35 310 45 474 124 252 380 380 683 341z"/>
</g>
</svg>
